PathFileType	4	(X/Y/Z)	TRAIL_071_Static_01_markers.trc
DataRate	CameraRate	NumFrames	NumMarkers	Units	OrigDataRate	OrigDataStartFrame	OrigNumFrames
200	200	4	48	mm	200	147	391
Frame#	Time	RSH			LSH			C7			LELB			LWR			RELB			RWR			RASI			LASI			SACR			P1			P2			LTHLP			LTHLD			LTHAP			LTHAD			LLEPI			LPAT			LMEPI			LTIAP			LTIAD			LTILAT			LLMAL			LMMAL			LHEEL			LMFS			LMFL			LP5MT			LP1MT			LTOE			RTHLP			RTHLD			RTHAP			RTHAD			RLEPI			RPAT			RMEPI			RTIAP			RTIAD			RTILAT			RLMAL			RMMAL			RHEEL			RMFS			RMFL			RP5MT			RP1MT			RTOE			
		X1	Y1	Z1	X2	Y2	Z2	X3	Y3	Z3	X4	Y4	Z4	X5	Y5	Z5	X6	Y6	Z6	X7	Y7	Z7	X8	Y8	Z8	X9	Y9	Z9	X10	Y10	Z10	X11	Y11	Z11	X12	Y12	Z12	X13	Y13	Z13	X14	Y14	Z14	X15	Y15	Z15	X16	Y16	Z16	X17	Y17	Z17	X18	Y18	Z18	X19	Y19	Z19	X20	Y20	Z20	X21	Y21	Z21	X22	Y22	Z22	X23	Y23	Z23	X24	Y24	Z24	X25	Y25	Z25	X26	Y26	Z26	X27	Y27	Z27	X28	Y28	Z28	X29	Y29	Z29	X30	Y30	Z30	X31	Y31	Z31	X32	Y32	Z32	X33	Y33	Z33	X34	Y34	Z34	X35	Y35	Z35	X36	Y36	Z36	X37	Y37	Z37	X38	Y38	Z38	X39	Y39	Z39	X40	Y40	Z40	X41	Y41	Z41	X42	Y42	Z42	X43	Y43	Z43	X44	Y44	Z44	X45	Y45	Z45	X46	Y46	Z46	X47	Y47	Z47	X48	Y48	Z48
147	        0.7300000191	      121.7846590080	     1520.0668573380	      -54.3536543846	     -148.2822206817	     1528.6368131638	      -44.2191958427	      -14.4116404481	     1517.5135135651	        3.5532712936	     -427.8330859743	     1402.4201631546	        3.6179423332	     -684.6816000543	     1384.8493099213	      -76.7295956612	      405.9371593394	     1399.7737169266	      -31.7912101746	      655.5454078116	     1425.0926971436	     -154.8364162445	      132.1553978123	     1000.0079870224	     -148.5952734947	     -133.8272151552	     1014.7360563278	     -177.4307489395	      -11.6520571537	     1015.3288841248	       18.5580253601	      -55.5717331372	     1017.3871517181	       16.2633657455	       29.1104036369	     1016.5424346924	       19.1922783852	     -201.7918881975	      726.3402342796	     -108.2232594490	     -191.4696154199	      615.7313585281	     -107.1988940239	     -122.3611441455	      711.9686603546	     -207.2694897652	     -123.9238363705	      609.5975637436	     -182.9367280006	     -185.2241066299	      520.1798677444	     -104.9588918686	     -138.5978666149	      505.5262446404	     -159.7772240639	      -76.1924293838	      487.9355132580	     -105.7093143463	     -155.5342433057	      351.1007130146	     -129.3556690216	     -168.3790591560	      246.8767762184	     -118.0986166000	     -221.2800142370	      308.9328706264	      -66.0602450371	     -210.9486666523	      109.7417771816	      -62.2882843018	     -131.4281580053	      106.5180227160	      -87.6050591469	     -171.3134703241	       60.5607256293	       -1.3107657433	     -173.1566396556	       87.8543183208	     -174.8087406158	     -261.3550183378	       42.6953285933	     -155.5525064468	     -262.3788771234	       38.4559221566	     -220.0805544853	     -157.7073392473	       45.1716482639	     -218.5893654823	     -186.4276883207	       52.9463812709	     -257.7507495880	      185.5145785012	      729.8810482025	      -82.6331377029	      176.4393242993	      633.5313320160	      -80.0510644913	      118.5306179323	      721.2280035019	     -190.5887722969	      115.0297614731	      628.2513141632	     -173.0760335922	      170.1216342844	      515.8166885376	      -81.3742280006	      127.4114194312	      495.9314167500	     -141.6358947754	       54.3071533539	      487.4962270260	      -93.8578844070	      149.3877264656	      360.7278168201	     -110.7673645020	      156.2826129593	      251.9046664238	      -95.6887602806	      204.5275512137	      326.4311254025	      -40.0165915489	      195.4734715619	      106.1989665031	      -25.2152681351	      119.4482165374	      117.9820746183	      -57.8763484955	      152.0928385653	       61.2231604755	       28.3099412918	      159.7611251273	       86.6465717554	     -147.8078961372	      243.4989306130	       39.5122319460	     -128.0868649483	      246.9839843907	       37.9215106368	     -184.6061348915	      142.8275647559	       41.8957136571	     -200.3957629204	      176.5579673447	       53.8313463330	     -244.5561885834
148	        0.7350000143	      121.7556315460	     1520.0496912003	      -54.2575120926	     -148.3231243692	     1528.6524295807	      -44.1139340401	      -14.4228759236	     1517.5244808197	        3.6560893059	     -427.8644976221	     1402.4381637573	        3.6923289299	     -684.7716626726	     1384.8491907120	      -76.4286518097	      405.8980288901	     1399.7831344604	      -31.6688418388	      655.5104198851	     1425.0861406326	     -154.7563672066	      132.1409883894	     1000.0196695328	     -148.5207676888	     -133.8443067871	     1014.7575139999	     -177.3174405098	      -11.6555458881	     1015.3379440308	       18.6664462090	      -55.6116347216	     1017.3888206482	       16.3410902023	       29.0507412501	     1016.5188312531	       19.2539691925	     -201.8019464813	      726.3286113739	     -108.1297397614	     -191.5252265535	      615.6949400902	     -107.1706414223	     -122.3626640640	      711.9875550270	     -207.2234153748	     -123.9139121972	      609.6245050430	     -182.8540563583	     -185.2162686191	      520.1844573021	     -104.9640178680	     -138.5814604364	      505.5541396141	     -159.7527265549	      -76.1973989211	      487.9059195518	     -105.7009696960	     -155.5372533403	      351.0641157627	     -129.3556690216	     -168.3550533853	      246.8593269587	     -118.0744171143	     -221.2927547298	      308.9034557343	      -66.1038160324	     -210.9483537279	      109.7483932972	      -62.2854828835	     -131.4118561349	      106.5219119191	      -87.6122117043	     -171.3051107727	       60.5410225689	       -1.3086199760	     -173.1472072206	       87.8402739763	     -174.7872829437	     -261.3001522623	       42.5872430205	     -155.5073857307	     -262.3984572492	       38.4626276791	     -220.0777530670	     -157.7170101009	       45.1643131673	     -218.5927033424	     -186.4252892337	       52.9556907713	     -257.7530741692	      185.5035069384	      729.8849821091	      -82.5654864311	      176.4171364703	      633.5299611092	      -80.0448656082	      118.4738817610	      721.2339043617	     -190.4870271683	      114.9947139420	      628.2708644867	     -172.9986667633	      170.0883003869	      515.8029794693	      -81.3437700272	      127.4000796475	      495.9473609924	     -141.6049599648	       54.2925055124	      487.5016212463	      -93.8227176666	      149.4229379095	      360.7536554337	     -110.7513904572	      156.2842669882	      251.9086301327	      -95.7327485085	      204.5084479250	      326.4214396477	      -40.0059819221	      195.4848113455	      106.1789467931	      -25.1929759979	      119.4189581074	      117.9897412658	      -57.8677654266	      152.4278315701	       61.1786767840	       28.3606648445	      159.7752365269	       86.6674855351	     -147.8490233421	      243.4804680743	       39.5159386098	     -128.0515193939	      246.9862940707	       37.9224903882	     -184.5648884773	      142.8598257698	       41.9170670211	     -200.4249691963	      176.5392514862	       53.8893155754	     -244.5144653320
149	        0.7400000095	      121.7296811737	     1520.0607776642	      -54.1580319405	     -148.3604815803	     1528.6525487900	      -44.0098047256	      -14.4616617836	     1517.5106525421	        3.7385225296	     -427.8993365369	     1402.4289846420	        3.7906765938	     -684.8123726450	     1384.8115205765	      -76.1731266975	      405.8880451121	     1399.7586965561	      -31.5306186676	      655.4787698187	     1425.0779151917	     -154.6626091003	      132.1121695437	     1000.0239610672	     -148.4436392784	     -133.8676718078	     1014.7616863251	     -177.2599816322	      -11.7116692491	     1015.3475999832	       18.7392234802	      -55.6289163433	     1017.3970460892	       16.4371132851	       29.1222295709	     1016.5047645569	       19.1482901573	     -201.8693742357	      726.3734936714	     -108.0078482628	     -191.5032622419	      615.6989336014	     -107.1201562881	     -122.3819759689	      711.9804024696	     -207.1351408958	     -123.9296105705	      609.6864938736	     -182.7886104584	     -185.2062252365	      520.1664566994	     -104.9571633339	     -138.5305878721	      505.5768489838	     -159.7364544868	      -76.2122255765	      487.8968596458	     -105.7335138321	     -155.5814948879	      351.0648608208	     -129.5304298401	     -168.3623549543	      246.8594014645	     -118.0717349052	     -221.2536987863	      308.8829517365	      -66.1197304726	     -210.9485623441	      109.7277030349	      -62.2821450233	     -131.3988176189	      106.5037027001	      -87.6103639603	     -171.3275370203	       60.5705380440	       -1.2902617455	     -173.1529441677	       87.8398269415	     -174.8115420341	     -261.3842544160	       42.6483042538	     -155.5285453796	     -262.3953280054	       38.4616218507	     -220.1097011566	     -157.7047613464	       45.1753735542	     -218.5915708542	     -186.4210573040	       52.9411584139	     -257.7434778214	      185.5009141364	      729.8765778542	      -82.4788212776	      176.4044406809	      633.5458755493	      -79.9574851990	      118.4729802408	      721.2501168251	     -190.4114484787	      114.9306613006	      628.2606124878	     -172.8919744492	      170.0770053067	      515.8190727234	      -81.2936425209	      127.3778471150	      495.9586560726	     -141.5509581566	       54.2784537174	      487.5039458275	      -93.7518477440	      149.3525597252	      360.7616722584	     -110.7234358788	      156.2167051234	      251.9162893295	      -95.7253575325	      204.4900300898	      326.4212310314	      -40.0034189224	      195.4754683175	      106.1875820160	      -25.1842737198	      119.4249707260	      117.9796010256	      -57.8553080559	      152.0759704508	       61.2065941095	       28.3380150795	      159.7492787041	       86.6629108787	     -147.7768421173	      243.4692922034	       39.5244248211	     -128.0586123466	      246.9726595082	       37.9557348788	     -184.5795512199	      142.7874955334	       41.9718958437	     -200.4083395004	      176.4467897810	       53.8848713040	     -244.5781230927
150	        0.7450000048	      121.6722371973	     1520.0494527817	      -54.0357828140	     -148.3921465478	     1528.6519527435	      -43.8930392265	      -14.5141203902	     1517.5011157990	        3.8595795631	     -427.9441294275	     1402.4088382721	        3.8843750954	     -684.8713812433	     1384.7765922546	      -75.9176015854	      405.8713260092	     1399.7668027878	      -31.4306616783	      655.4456296362	     1425.0633716583	     -154.6239852905	      132.1230622925	     1000.0330209732	     -148.3812332153	     -133.8538882337	     1014.7657394409	     -177.2158741951	      -11.7207552321	     1015.3423547745	       18.8433527946	      -55.6428005002	     1017.4092054367	       16.5186524391	       29.0339252897	     1016.5358781815	       19.4351077080	     -201.8701639972	      726.3126373291	     -107.9269051552	     -191.5588435731	      615.6787276268	     -107.0836782455	     -122.4030760131	      711.9809389114	     -207.0420384407	     -123.9171233974	      609.7428798676	     -182.6844215393	     -185.2089670501	      520.1737880707	     -104.9538254738	     -138.5249105297	      505.6169033051	     -159.7229242325	      -76.1695039473	      487.8804683685	     -105.7648062706	     -155.5520948968	      351.0337471962	     -129.3782591820	     -168.3550235830	      246.8533664942	     -118.1055903435	     -221.2741431795	      308.8622093201	      -66.1270022392	     -210.9621671043	      109.7036078572	      -62.2807741165	     -131.4000693164	      106.4862385392	      -87.6195430756	     -171.2902543150	       60.5456270278	       -1.3168454170	     -173.1316057048	       87.8429636359	     -174.7881174088	     -261.3416370950	       42.6382534206	     -155.5087566376	     -262.3932120405	       38.4198911488	     -220.0996279716	     -157.6863584123	       45.1705455780	     -218.5788750648	     -186.4354220234	       52.9493317008	     -257.7404379845	      185.4735854067	      729.8941016197	      -82.4179053307	      176.3700040974	      633.5239410400	      -79.8963904381	      118.4545698561	      721.2558388710	     -190.3110146523	      114.9326282539	      628.2824873924	     -172.8127598763	      170.0633856453	      515.8139467239	      -81.2469124794	      127.3576709427	      495.9526360035	     -141.4934992790	       54.2580875554	      487.4962866306	      -93.6816334724	      149.3700387873	      360.7448935509	     -110.6964945793	      156.2291475930	      251.9048750401	      -95.6847071648	      204.4819685616	      326.4166712761	      -39.9776697159	      195.4913678564	      106.1922833323	      -25.1536369324	      119.4108369746	      117.9744303226	      -57.8298568726	      152.0758959450	       61.2007938325	       28.3622145653	      159.7482207217	       86.6354033351	     -147.7444767952	      243.4712144532	       39.5422391593	     -128.0775666237	      246.9631823697	       37.9705056548	     -184.5555901527	      142.7876743473	       41.9901981950	     -200.4134058952	      176.5276136794	       53.9573617280	     -244.5026040077
